<?xml version="1.0" encoding="UTF-8"?>
<svg id="Layer_1" data-name="Layer 1" xmlns="http://www.w3.org/2000/svg" viewBox="0 0 32 32">
  <defs>
    <style>
      .cls-1 {
        fill: #f58b29;
      }

      .cls-1, .cls-2 {
        stroke-width: 0px;
      }
    </style>
  </defs>
  <path class="cls-1" d="M15.5,3.76c-.39.03-.78.1-1.17.17-.38.05-.74.2-1.11.31-.66.24-1.29.55-1.87.95-.35.22-.65.49-.96.76-.97.87-1.72,1.97-2.2,3.17-.18.38-.28.79-.39,1.2-.11.56-.21,1.14-.2,1.71,0,.34-.02.69.03,1.03.04.36.09.72.16,1.07.05.25.15.5.22.75.05.17.13.34.19.5.11.32.29.6.43.91.17.37.44.68.67,1.02.34.43.7.84,1.12,1.2.65.61,1.42,1.07,2.21,1.46.36.16.73.3,1.11.39.18.03.36.08.54.13.71.14,1.43.22,2.15.19.34-.04.68-.02,1.02-.09.58-.12,1.16-.25,1.71-.47.34-.12.65-.29.96-.45.75-.44,1.44-.98,2.02-1.63.55-.6.98-1.3,1.38-2.02.39-.76.63-1.59.83-2.43.13-.7.23-1.43.15-2.14-.03-.56-.14-1.12-.3-1.66-.16-.47-.33-.95-.57-1.39-.44-.84-1.03-1.6-1.71-2.26-.34-.35-.73-.63-1.13-.91-.48-.33-1-.63-1.54-.85-.27-.11-.54-.24-.82-.31-.58-.19-1.18-.27-1.78-.33-.38-.01-.75-.01-1.13,0ZM15.63,1.74h.97c.63.08,1.27.13,1.9.28.35.05.68.16,1.01.26.98.31,1.92.75,2.77,1.32.34.2.62.48.94.71.29.21.53.48.79.73.77.84,1.44,1.81,1.86,2.88.23.53.39,1.08.51,1.63.1.58.21,1.16.2,1.75,0,.43.01.86-.05,1.29-.13,1.29-.5,2.56-1.04,3.73-.27.61-.56,1.21-.87,1.8-.25.56-.6,1.08-.89,1.62-1.2,2.1-2.62,4.06-4.03,6.02-.37.49-.71,1-1.1,1.48-.18.22-.31.46-.51.67-.25.26-.42.57-.65.84-.34.44-.72.85-1.09,1.26-.1.12-.24.21-.39.27-.23-.22-.47-.44-.67-.69-.24-.27-.48-.54-.7-.83-.39-.5-.77-1-1.16-1.51-.24-.28-.46-.58-.68-.89-.17-.24-.4-.44-.55-.7-.15-.25-.35-.46-.52-.7-.47-.65-.91-1.31-1.35-1.97-.75-1.24-1.59-2.43-2.29-3.71-.26-.44-.51-.88-.73-1.34-.35-.66-.66-1.35-.96-2.03-.25-.64-.52-1.28-.65-1.95-.5-1.97-.37-4.1.42-5.97.13-.34.31-.67.47-1,.28-.45.57-.9.9-1.32.76-.92,1.66-1.73,2.7-2.33.5-.33,1.05-.56,1.59-.8.35-.15.72-.24,1.08-.36.25-.08.51-.11.77-.17.45-.11.92-.14,1.38-.2.2-.03.4-.03.6-.04"/>
  <path class="cls-2" d="M20.86,13.46c-.55.07-1.07.31-1.53.61-.67.46-1.25,1.07-1.58,1.82-.29.61-.36,1.31-.23,1.97.04.05.1.06.16.08.44.13.92.07,1.33-.13.55-.25,1-.66,1.42-1.08.53-.55,1.04-1.14,1.35-1.85.12-.26.18-.56.13-.85-.03-.18-.15-.34-.3-.44-.22-.14-.5-.16-.76-.14ZM11,13.47c-.24.03-.51.09-.69.28-.15.15-.19.38-.17.58.05.41.24.79.45,1.14.46.72,1.05,1.35,1.73,1.87.41.31.85.59,1.36.71.25.06.53.04.74-.13.22-.17.3-.47.29-.73-.02-.49-.2-.95-.44-1.37-.43-.77-1.03-1.46-1.78-1.93-.44-.28-.96-.47-1.49-.42M14.43,6.09c-1.41.4-2.72,1.23-3.58,2.43-.29.42-.53.92-.48,1.45.73.09,1.46.04,2.19,0,.42-.03.83-.05,1.25-.1.82-.05,1.64-.16,2.46-.13.75.03,1.49.12,2.23.16.59.05,1.17.08,1.76.11.48.01.96.03,1.43-.08.07-.4-.12-.79-.31-1.13-.5-.81-1.23-1.46-2.03-1.96-.63-.39-1.33-.67-2.05-.83-.94-.2-1.93-.17-2.87.08M15.62,4.69c.97-.1,1.96.04,2.87.39.72.27,1.4.67,2.03,1.1,1.17.8,2.08,1.98,2.56,3.31.45,1.19.55,2.5.38,3.76-.24,1.69-1.03,3.31-2.27,4.49-1.66,1.59-4.08,2.3-6.33,1.94-1.54-.25-2.98-1.01-4.09-2.11-1.12-1.11-1.93-2.57-2.17-4.14-.28-1.59-.03-3.27.73-4.7.86-1.62,2.33-2.9,4.04-3.55.72-.28,1.48-.42,2.25-.5"/>
</svg>