<?xml version="1.0" encoding="UTF-8"?>
<svg id="Layer_1" data-name="Layer 1" xmlns="http://www.w3.org/2000/svg" viewBox="0 0 64 64">
  <defs>
    <style>
      .cls-1 {
        fill: #fff;
        stroke-width: 0px;
      }
    </style>
  </defs>
  <path class="cls-1" d="M54.52,55.52c-.36-.49-.69-1-1.09-1.45-.81-.93-.85-1.9-.54-3.09.65-2.42,1.25-4.89,1.14-7.41-.1-2.17-.41-4.32-.66-6.48-.21-1.79-.45-3.58-.7-5.37-.05-.35-.13-.69-.24-1.03-.36-1.09-1.03-1.6-2.24-1.7.07.67.17,1.33.2,1.99.03.75.02,1.5,0,2.25-.02.55-.33.83-.79.8-.44-.03-.71-.38-.66-.92.17-2.09-.2-4.12-.76-6.12-.07-.23-.15-.47-.24-.69-.45-1.1-1.52-1.65-2.76-1.37.06.69.12,1.39.18,2.08.16,1.83.32,3.66.48,5.49.04.51-.22.85-.65.89-.45.04-.76-.22-.8-.74-.18-1.98-.35-3.96-.52-5.95-.07-.75-.12-1.5-.21-2.24-.07-.6-.24-1.18-.87-1.41-.74-.27-1.48-.22-2.15.24-.34.23-.38.6-.36.99.11,2.09.22,4.19.32,6.28.05,1.07.1,2.14.13,3.21.02.57-.26.92-.71.93-.45.01-.73-.33-.76-.9-.28-5.14-.54-10.27-.85-15.41-.09-1.56-.32-3.1-.53-4.65-.15-1.07-.71-1.18-1.64-.63-.12.07-.2.3-.2.46-.05,1.73-.12,3.46-.11,5.19.01,3.63.12,7.26.1,10.89-.02,2.65-.19,5.29-.29,7.94-.01.28-.03.55-.05.83-.03.54-.32.85-.77.83-.45-.02-.71-.36-.69-.91.02-.41.07-.83.06-1.24,0-.17-.1-.36-.2-.51-.47-.69-1.05-1.32-1.42-2.06-1.02-2-2.68-3.14-4.78-3.7-.37-.1-.83-.03-1.21.08-.52.16-.69.63-.42,1.1.27.48.57.95.94,1.35,1.84,2,3.04,4.33,3.95,6.87.49,1.38,1.31,2.65,2.03,3.95.68,1.23,1.52,2.38,2.11,3.65.7,1.51,1.81,2.55,3.18,3.39.4.25.82.47,1.23.71.44.26.59.65.38,1.03-.2.38-.65.52-1.06.25-1.02-.64-2.04-1.29-3.02-2-.71-.52-1.2-1.24-1.63-2.02-.85-1.56-1.73-3.1-2.66-4.61-.93-1.49-1.7-3.04-2.25-4.7-.62-1.85-1.56-3.51-2.85-4.99-.52-.6-1.03-1.22-1.44-1.9-1.08-1.75-.13-3.58,1.93-3.71.57-.03,1.18.03,1.71.21,2.34.81,4.22,2.19,5.27,4.53.07.16.17.31.36.46.02-.34.06-.68.06-1.01,0-3.03,0-6.06,0-9.09,0-3.17,0-6.34.03-9.51,0-.7.1-1.4.16-2.1.01-.13.06-.29.14-.38.74-.76,1.62-1.25,2.7-1.07,1.05.17,1.63.9,1.77,1.92.24,1.76.45,3.52.63,5.28.11,1.06.16,2.13.25,3.25.34-.1.63-.21.94-.27,1.42-.3,3.13.03,3.79,1.71.03.09.23.14.36.15.53.06,1.08.04,1.59.15,1.09.24,1.92.87,2.35,1.92.27.65.48,1.31.71,1.96.41.06.84.09,1.26.2,1.72.44,2.59,1.68,2.89,3.33.24,1.32.36,2.67.54,4,.26,2,.52,4.01.79,6.01.35,2.6.1,5.16-.43,7.71-.23,1.11-.51,2.21-.73,3.31-.04.22.02.51.13.71.27.5.6.96.9,1.44.42.66.37.94-.26,1.38h-.46Z"/>
  <path class="cls-1" d="M8.47,50.1c.26-.38.62-.47,1.06-.47,3.17.02,6.34,0,9.5,0h.48c.83-2.84,2.65-4.38,5.14-4.37,2.06.01,4.44,1.3,5.09,4.37.8,0,1.61,0,2.41,0,.58,0,.92.27.92.72,0,.46-.33.74-.91.74-.81,0-1.62,0-2.45,0-.18.91-.5,1.73-1.07,2.42-.91,1.12-2.08,1.77-3.53,1.91-.14.01-.27.05-.4.07h-.18c-.13-.02-.27-.06-.4-.07-.84-.07-1.61-.35-2.31-.81-1.27-.83-2-2.02-2.29-3.53h-.51c-3.17,0-6.33,0-9.5,0-.45,0-.8-.09-1.06-.47v-.55ZM24.67,46.7c-2.04,0-3.69,1.63-3.7,3.66,0,2.01,1.63,3.67,3.63,3.69,2.04.01,3.71-1.62,3.72-3.64.01-2.04-1.63-3.71-3.65-3.71Z"/>
  <path class="cls-1" d="M8.47,13.34c.26-.38.62-.47,1.06-.47,6.81.01,13.62,0,20.44,0,.18,0,.36,0,.57,0,.06-.24.11-.46.16-.68.74-2.8,3.72-4.4,6.45-3.44.07.03.14.05.21.08.41.18.59.55.47.92-.14.4-.52.6-.96.45-.76-.26-1.51-.34-2.3-.12-2.43.7-3.36,3.59-1.8,5.58.04.05.08.09.12.14.43.51.47.93.1,1.24-.35.3-.79.2-1.22-.29-.6-.68-.97-1.48-1.17-2.41h-.54c-6.84,0-13.69,0-20.53,0-.45,0-.81-.09-1.07-.47v-.55Z"/>
  <path class="cls-1" d="M8.47,31.26c.07-.25.13-.49.21-.74.66-2.22,2.74-3.72,5.09-3.67,2.27.05,4.26,1.65,4.82,3.89.04.16.08.32.13.52.79,0,1.59,0,2.38,0,.35,0,.7,0,1.06,0,.66,0,1.01.25,1.01.73,0,.48-.34.74-1.01.74-1.15,0-2.29,0-3.45,0-.23,1.26-.77,2.32-1.72,3.14-2.98,2.58-7.61,1.02-8.42-2.84-.02-.1-.06-.2-.1-.3,0-.49,0-.98,0-1.47ZM13.62,35.67c2.04,0,3.68-1.65,3.68-3.68,0-2.01-1.64-3.66-3.65-3.67-2.06,0-3.71,1.65-3.7,3.71,0,2,1.66,3.65,3.67,3.64Z"/>
  <path class="cls-1" d="M48.13,14.35c-2.08,0-4.17,0-6.25,0-.14,0-.28.01-.41-.01-.39-.07-.63-.32-.63-.72,0-.41.24-.65.63-.72.15-.03.31-.01.46-.01,4.17,0,8.33,0,12.5,0,.15,0,.31-.02.46.01.4.07.64.32.64.72,0,.41-.24.65-.64.72-.13.03-.27.01-.41.01-2.11,0-4.23,0-6.34,0Z"/>
</svg>