<?xml version="1.0" encoding="UTF-8"?>
<svg id="Layer_1" data-name="Layer 1" xmlns="http://www.w3.org/2000/svg" viewBox="0 0 64 64">
  <defs>
    <style>
      .cls-1 {
        fill: #fff;
        stroke-width: 0px;
      }
    </style>
  </defs>
  <path class="cls-1" d="M34.67,6.86c.97.23,1.96.4,2.91.7,10.25,3.24,16.57,10.1,18.92,20.59.52,2.31.61,4.66.42,7.02-.07.9-.52,1.37-1.25,1.32-.72-.04-1.12-.6-1.07-1.48.41-7.35-1.88-13.73-7.08-18.95-5.13-5.15-11.43-7.47-18.69-7.11-2.97.15-5.81.88-8.52,2.11-.16.07-.32.16-.52.26,1.28,1.79,2.53,3.55,3.78,5.3.81-.25,1.57-.5,2.34-.71.7-.19,1.28.13,1.48.78.19.63-.14,1.23-.83,1.46-.62.2-1.25.39-1.91.6.5,2.01.37,3.92-.53,5.76-.39.8-.91,1.51-1.63,2.13-3.28-4.99-6.54-9.94-9.88-15,1-.69,1.94-1.43,2.96-2.04.66-.4,1.45-.36,2.21-.16.17.04.4.05.55-.03,2.42-1.2,4.95-2.04,7.61-2.48.04,0,.08-.05.13-.07,2.86,0,5.73,0,8.59,0Z"/>
  <path class="cls-1" d="M21.55,27.34c-.88.5-1.72.97-2.67,1.51,3.98,6.5,9.08,11.81,15.43,16.04.32-.52.57-.94.83-1.35.25-.41.49-.81.76-1.26,4.84,3.46,9.66,6.89,14.47,10.33-1.85,3.45-5.15,5.04-9.03,4.39-2.98-.5-5.68-1.74-8.24-3.28-6.05-3.62-11.17-8.33-15.77-13.63-2.99-3.44-5.64-7.12-7.71-11.19-1.14-2.24-2.07-4.55-2.46-7.05-.29-1.92-.27-3.83.68-5.58.4-.74.97-1.41,1.57-2,.69-.67,1.5-1.22,2.32-1.87,3.28,4.99,6.55,9.95,9.83,14.94Z"/>
  <path class="cls-1" d="M46.62,40.61c1.73,1.34,3.45,2.66,5.24,4.04.44-1.01.86-1.96,1.26-2.93.19-.46.46-.8.97-.88.93-.15,1.63.71,1.25,1.62-.5,1.21-1.09,2.39-1.62,3.59-.1.22-.14.5-.11.73.13.9.04,1.77-.48,2.51-.6.84-1.27,1.62-1.94,2.46-4.87-3.48-9.7-6.93-14.59-10.42,2.32-2.2,4.96-2.71,8.07-1.87.32-1.17.74-2.32.94-3.5,1.44-8.29-3.7-16-11.88-17.89-.22-.05-.45-.09-.68-.14-.69-.17-1.08-.73-.96-1.39.11-.61.68-1.01,1.37-.9,1.85.3,3.62.87,5.24,1.8,6.47,3.71,9.63,9.32,9.45,16.77-.05,2.1-.57,4.13-1.42,6.06-.04.1-.08.21-.14.33Z"/>
  <path class="cls-1" d="M29.71,33.03c.71,0,1.41,0,2.12,0,.74,0,1.24.45,1.27,1.1.03.68-.45,1.22-1.2,1.23-1.74.03-3.49.02-5.23,0-.5,0-.88-.25-1.08-.72-.2-.46-.12-.9.22-1.23.98-.95,1.98-1.87,2.99-2.78.49-.44,1.02-.83,1.5-1.28.46-.43.57-.95.35-1.38-.32-.61-.89-.61-1.46-.57-.6.04-.95.3-1.1.82-.05.17-.07.36-.11.53-.16.61-.7,1-1.27.92-.61-.09-1.04-.61-1.02-1.25.05-1.79,1.45-3.27,3.31-3.34.72-.03,1.5.06,2.16.34,2.08.88,2.61,3.58,1.05,5.3-.64.7-1.42,1.27-2.13,1.9-.13.12-.27.22-.41.33.02.04.03.07.05.11Z"/>
  <path class="cls-1" d="M38.42,33.46c-1.07,0-2.06,0-3.04,0-.99,0-1.37-.42-1.42-1.41-.03-.71.16-1.3.59-1.87,1.07-1.46,2.09-2.95,3.14-4.43.5-.71,1.79-.96,2.52-.5.44.28.56.71.56,1.19,0,1.4,0,2.8,0,4.2,0,.3.04.5.38.62.46.16.69.56.69,1.04,0,.46-.2.88-.64,1.02-.41.14-.43.38-.43.73,0,.71-.34,1.16-.92,1.28-.7.15-1.34-.32-1.4-1.02-.02-.26,0-.52,0-.84ZM38.39,28.82c-.57.81-1.07,1.51-1.6,2.27h1.6v-2.27Z"/>
</svg>