<?xml version="1.0" encoding="UTF-8"?>
<svg id="Layer_1" data-name="Layer 1" xmlns="http://www.w3.org/2000/svg" viewBox="0 0 64 64">
  <defs>
    <style>
      .cls-1 {
        fill: #fff;
        stroke-width: 0px;
      }
    </style>
  </defs>
  <path class="cls-1" d="M25.12,6.34c1.37.57,1.24,2.44,2.78,2.92,1.24.39,3.44.6,2.16,2.46-.44.64-1.34,1.16-1.49,1.95-.15.8.34,1.68.16,2.5-.45,2.07-2.48.39-3.62.18-1.24-.23-3.32,1.96-4.18.19-.39-.8.15-1.77.04-2.6-.13-1-.98-1.46-1.5-2.24-1.17-1.77.77-2.02,1.99-2.37,1.68-.47,1.54-2.33,2.95-2.97h.7ZM22.34,15.59c.72-.3,1.64-.88,2.43-.89.8,0,1.72.58,2.45.88-.07-.76-.35-1.81-.11-2.56.24-.76,1.1-1.48,1.62-2.07-.75-.17-1.85-.23-2.5-.7-.64-.46-1.05-1.5-1.45-2.16-.4.66-.81,1.71-1.45,2.17-.66.47-1.72.52-2.49.69.5.58,1.36,1.28,1.6,2.02.26.78-.02,1.81-.1,2.62Z"/>
  <path class="cls-1" d="M25.64,47.86c0-1.53-.22-3.26,0-4.77.18-1.24,1.03-1.61,2.18-1.61,1.45,0,3.09-.19,4.52.04,1.09.17,1.37.86,1.47,1.89,4.49.83,4.9-4.29,5.83-7.46.35-1.2.7-2.4,1.03-3.6.22-.79.35-1.66.98-2.25,1.45-1.38,3.31-.11,4.01,1.39.87,1.87.31,4.44.38,6.44.08,2.26,2.06,1.67,3.86,1.66,1.84,0,4.67-.56,6.29.48,1.79,1.15,1.32,2.95.47,4.5,1.06,1.21,1.07,2.9-.03,4.08,1.16,1.8,1.16,2.57,0,4.22,1.28,1.43,1.08,3.82-.8,4.66-.99.44-2.24.23-3.29.22-1.31,0-2.62-.01-3.92-.03-2.49-.03-4.93.08-7.28-.84-2.51-.99-4.8-1.21-7.49-1.11-.31,1.01-.76,1.48-1.82,1.58-1.49.14-3.61.29-5.06-.04-1.3-.29-1.33-1.41-1.33-2.55,0-1.78,0-3.56,0-5.34-3.67,0-7.34,0-11.02,0-1.53,0-3.12.13-4.33-.97-1.1-1-1.37-2.46-1.03-3.86.61-2.53,2.01-5,3.87-6.81,2.02-1.96,4.41-2.84,7.01-3.72-2.18-1.64-3.68-3.87-3.74-6.68-.02-1.04.12-2.67.8-3.53.35-.43.87-.75,1.27-.2.41.57-.3,1.7-.43,2.32-1.19,5.95,5.99,10.11,10.61,6.27,4.72-3.93,1.56-11.91-4.59-11.53-.69.04-1.37.2-2.02.45-.63.25-1.16.79-1.76,1.01-.51.19-1.24.13-1.19-.64.04-.62.94-1.04,1.41-1.31,2.38-1.35,5.41-1.35,7.81-.05,2.6,1.41,4.13,4.16,4.17,7.09.02,1.37-.3,2.73-.99,3.92-.38.65-.86,1.24-1.4,1.77-.45.43-1.33.83-1.63,1.33,1.75.56,3.42,1.22,4.94,2.26.65.44,4.28,2.92,2.9,3.82-.74.48-1.4-.6-1.87-1.04-.79-.76-1.67-1.43-2.61-1.99-1.81-1.07-3.84-1.73-5.93-1.95-4.1-.43-8.21.38-11.36,3.16-1.23,1.09-2.23,2.43-2.93,3.92-.61,1.29-1.59,3.3-.59,4.61.64.85,1.64.84,2.61.85,1.36,0,2.73,0,4.09,0,2.58,0,5.35.29,7.91-.04ZM33.8,54.23c2.2,0,4.32,0,6.45.63,2.19.65,3.94,1.27,6.27,1.32,2.13.05,4.26.05,6.39.06.75,0,1.88.24,2.54-.26.58-.44.7-1.33.23-1.9-.98-1.19-3.23.31-4.09-.78-1.26-1.59,2.92-1.15,3.32-1.27,1.38-.42,1.36-2.2-.04-2.58-.77-.21-3.42.54-3.45-.78-.03-1.48,3.39-.32,4.2-1.19.39-.42.46-1.12.15-1.6-.45-.73-1.34-.62-2.08-.62-.56,0-1.88.26-2.18-.37-.34-.72.4-1,.88-1.13,1.05-.28,3.94.56,3.55-1.58-.31-1.74-3.45-1.1-4.63-1.1-1.57,0-3.65.38-5.14-.16-3.63-1.33-.16-7.16-2.3-9.44-1.54-1.65-1.92,1.79-2.21,2.76-.55,1.88-1.1,3.76-1.65,5.64-.47,1.6-.83,3.19-2.25,4.22-1.21.87-2.56.86-3.98.86v9.25ZM27.19,43.01c-.02.1-.04.15-.04.2,0,4.08,0,8.16-.01,12.24,0,.37.18.39.46.39,1.42,0,2.84,0,4.26,0,.13,0,.25-.03.38-.04v-12.78h-5.05Z"/>
  <path class="cls-1" d="M7.99,15.99c.05-.63.29-1.46.02-2.06-.28-.62-1.02-.95-1.28-1.59-.66-1.67,1.3-1.53,2.24-1.99,1.03-.5,1.41-2.85,2.88-2.2.73.33.83,1.29,1.35,1.81.56.57,1.3.45,2,.72,1.42.56.93,1.62.15,2.51-.48.55-.73.93-.7,1.69.02.55.25,1.1.02,1.64-.67,1.52-2.35,0-3.5.1-.96.07-3.26,1.49-3.18-.63ZM11.39,9.89c-.52,1.41-1.51,2.08-2.98,2.16,1.2.92,1.52,2.06,1.09,3.45.72-.24,1.31-.58,1.91-.58.58,0,1.17.35,1.89.59-.5-1.44-.07-2.53,1.05-3.46-1.49-.06-2.44-.75-2.96-2.15Z"/>
  <path class="cls-1" d="M34.22,15.37c.72-1.67-1.77-2.34-1.48-3.78.23-1.17,2.27-1.01,3.05-1.81.7-.72,1.27-2.59,2.53-1.4.48.46.63,1.16,1.17,1.6.57.47,1.16.48,1.82.72,1.75.63.68,1.7-.03,2.72-.46.65-.49,1.17-.44,1.93.04.65.17,1.39-.54,1.76-.61.31-1.17-.06-1.71-.3-.99-.43-1.43-.3-2.39.13-1.25.55-2.26-.08-1.97-1.57ZM35.67,15.54c1.24-.82,2.43-.84,3.68,0-.4-1.43-.03-2.56,1.13-3.5-1.52-.05-2.45-.79-2.98-2.17-.48,1.44-1.47,2.1-2.96,2.18,1.19.92,1.52,2.06,1.13,3.49Z"/>
</svg>