<svg id="Layer_1" data-name="Layer 1" xmlns="http://www.w3.org/2000/svg" viewBox="0 0 120 40">
  <defs>
    <style>
      .cls-1 { fill: #f58b29; }
      .cls-1, .cls-2, .cls-3 { stroke-width: 0px; }
      .cls-4 { fill: #fff; font-family: CeraPro-Black, 'Cera Pro'; font-size: 4.55px; font-weight: 800; }
      .cls-3 { fill: #231f20; }
    </style>
  </defs>
  <g>
    <path class="cls-1" d="M13.35,10.29c-.3.02-.59.07-.89.13-.29.03-.56.15-.84.23-.5.18-.98.42-1.41.72-.26.17-.49.37-.73.57-.73.66-1.3,1.49-1.67,2.4-.13.29-.21.6-.29.9-.09.43-.16.86-.15,1.29,0,.26-.01.52.02.78.03.27.06.54.12.81.04.19.11.38.16.57.04.13.1.25.15.38.08.24.22.46.33.68.13.28.33.52.5.77.25.32.53.64.84.9.49.46,1.07.81,1.67,1.11.27.12.55.23.84.3.14.03.27.06.41.1.54.11,1.08.17,1.63.15.26-.03.52-.01.77-.07.44-.09.88-.19,1.29-.36.25-.09.49-.22.73-.34.56-.33,1.09-.74,1.52-1.23.42-.46.74-.99,1.04-1.53.3-.58.48-1.21.63-1.83.1-.53.17-1.08.11-1.62-.02-.43-.11-.84-.23-1.25-.12-.36-.25-.72-.43-1.05-.34-.63-.78-1.21-1.29-1.7-.26-.26-.55-.48-.85-.69-.37-.25-.76-.47-1.17-.64-.21-.08-.41-.18-.62-.24-.44-.14-.89-.21-1.35-.25-.28,0-.57,0-.85,0ZM13.44,8.76h.73c.48.06.96.1,1.43.21.26.04.51.12.77.19.74.23,1.45.57,2.1,1,.26.15.47.36.71.53.22.16.4.36.6.55.59.64,1.09,1.37,1.4,2.17.17.4.29.81.39,1.24.07.44.16.87.15,1.32,0,.33.01.65-.04.98-.1.98-.38,1.93-.79,2.82-.21.46-.42.92-.66,1.36-.19.43-.45.82-.68,1.22-.91,1.59-1.98,3.07-3.05,4.55-.28.37-.54.76-.83,1.12-.13.16-.24.35-.38.5-.19.19-.32.43-.49.63-.26.33-.54.64-.82.95-.08.09-.18.16-.29.2-.18-.17-.35-.33-.51-.52-.18-.2-.37-.41-.53-.63-.29-.38-.58-.76-.87-1.14-.18-.21-.35-.44-.51-.67-.13-.18-.3-.34-.41-.53-.11-.19-.27-.35-.39-.53-.35-.49-.69-.99-1.02-1.49-.57-.94-1.2-1.84-1.73-2.8-.2-.33-.39-.67-.55-1.01-.27-.5-.5-1.02-.73-1.54-.19-.48-.39-.96-.49-1.48-.37-1.49-.28-3.1.32-4.52.1-.26.24-.5.36-.75.21-.34.43-.68.68-1,.57-.7,1.26-1.31,2.04-1.76.38-.25.79-.42,1.2-.6.26-.12.55-.18.82-.27.19-.06.39-.08.58-.13.34-.08.7-.1,1.05-.15.15-.02.3-.02.45-.03"/>
    <path class="cls-2" d="M17.4,17.63c-.42.05-.81.23-1.16.46-.51.34-.94.81-1.2,1.37-.22.46-.27.99-.17,1.49.03.04.08.05.12.06.33.1.7.05,1-.1.41-.19.75-.5,1.07-.82.4-.42.79-.86,1.02-1.4.09-.2.14-.42.1-.64-.03-.14-.11-.26-.23-.33-.17-.11-.38-.12-.57-.1ZM9.95,17.63c-.19.02-.39.07-.52.21-.11.12-.14.29-.13.44.03.31.18.6.34.86.35.54.8,1.02,1.31,1.42.31.23.65.45,1.03.54.19.04.4.03.56-.1.17-.13.22-.35.22-.55-.01-.37-.15-.72-.33-1.04-.33-.58-.78-1.1-1.35-1.46-.33-.21-.72-.36-1.12-.32M12.53,12.05c-1.06.3-2.06.93-2.71,1.84-.22.32-.4.7-.36,1.1.55.07,1.1.03,1.65,0,.31-.03.63-.04.94-.07.62-.04,1.24-.12,1.86-.1.56.02,1.12.09,1.69.12.44.03.89.06,1.33.08.36,0,.73.02,1.08-.06.05-.3-.09-.6-.24-.85-.38-.61-.93-1.1-1.54-1.48-.48-.29-1-.51-1.55-.63-.71-.15-1.46-.13-2.17.06M13.43,10.99c.73-.07,1.48.03,2.17.29.55.21,1.06.51,1.54.83.88.61,1.57,1.5,1.94,2.51.34.9.41,1.89.29,2.84-.18,1.28-.78,2.5-1.72,3.39-1.25,1.2-3.08,1.74-4.79,1.47-1.17-.19-2.26-.76-3.09-1.59-.85-.84-1.46-1.94-1.64-3.13-.21-1.2-.02-2.48.55-3.55.65-1.22,1.76-2.19,3.05-2.68.54-.21,1.12-.32,1.7-.38"/>
  </g>
  <g>
    <text class="cls-4" transform="translate(44.65 13.39)"><tspan x="0" y="0"> </tspan></text>
    <path class="cls-3" d="M28.34,23.86c-.67,0-1.29-.12-1.86-.35-.57-.23-1.08-.56-1.51-.97s-.77-.9-1.01-1.46c-.24-.55-.36-1.15-.36-1.79s.12-1.24.36-1.79c.24-.55.58-1.04,1.01-1.46s.93-.74,1.51-.97,1.19-.35,1.86-.35,1.29.12,1.86.35c.57.23,1.08.56,1.51.97.43.42.77.9,1.01,1.46.24.55.36,1.15.36,1.79s-.12,1.24-.36,1.79c-.24.55-.58,1.04-1.01,1.46-.43.42-.93.74-1.51.97-.57.23-1.19.35-1.86.35ZM28.34,21.86c.35,0,.68-.07.99-.2.3-.13.57-.31.79-.54.22-.23.4-.5.53-.82.13-.32.19-.66.19-1.02s-.06-.71-.19-1.02c-.13-.31-.3-.58-.53-.81-.22-.23-.49-.41-.79-.54s-.63-.2-.99-.2-.68.07-.99.2c-.3.13-.57.31-.79.54-.22.23-.4.5-.52.81-.13.31-.19.65-.19,1.02s.06.7.19,1.02c.13.32.3.59.52.82.22.23.49.41.79.54.3.13.63.2.99.2Z"/>
    <path class="cls-1" d="M34.45,19.06v-3.69h2.47l-.82,3.69h-1.64Z"/>
    <path class="cls-3" d="M40.6,23.72v-6.93h-2.9v-1.92h7.97v1.92h-2.9v6.93h-2.18Z"/>
    <path class="cls-3" d="M46.03,23.72v-6.69h2.05v.67c.22-.27.48-.47.77-.61.3-.14.62-.21.99-.21.36,0,.62.06.77.16v1.78c-.14-.07-.29-.12-.46-.15-.17-.03-.34-.05-.52-.05-.32,0-.62.07-.89.22-.27.15-.5.36-.66.63v4.25h-2.05Z"/>
    <path class="cls-3" d="M53.5,23.83c-.47,0-.89-.09-1.26-.27s-.65-.42-.86-.73-.31-.67-.31-1.08c0-.64.24-1.14.73-1.49.48-.35,1.16-.53,2.03-.53.52,0,1.03.06,1.52.19v-.33c0-.34-.11-.59-.32-.75-.22-.16-.53-.25-.96-.25-.26,0-.55.04-.88.13s-.71.22-1.14.4l-.73-1.51c.55-.24,1.08-.43,1.59-.55.51-.12,1.02-.18,1.54-.18.93,0,1.65.22,2.16.66s.77,1.06.77,1.87v4.29h-2.02v-.4c-.27.19-.55.32-.85.4-.3.08-.63.12-.99.12ZM53.02,21.72c0,.21.09.38.28.49.19.12.44.18.77.18.24,0,.47-.03.69-.08.21-.05.41-.13.59-.24v-.86c-.19-.05-.39-.09-.59-.11-.2-.03-.41-.04-.62-.04-.35,0-.63.06-.82.17-.19.11-.29.28-.29.49Z"/>
    <path class="cls-3" d="M61.83,23.84c-.67,0-1.27-.15-1.8-.46-.54-.3-.96-.72-1.27-1.25-.31-.53-.47-1.12-.47-1.77s.16-1.25.47-1.77c.31-.52.74-.94,1.27-1.25.54-.31,1.14-.46,1.8-.46.55,0,1.07.11,1.57.32s.92.52,1.27.92l-1.25,1.3c-.24-.27-.48-.47-.72-.59s-.51-.18-.81-.18-.56.07-.8.22c-.24.15-.42.35-.56.61-.13.26-.2.55-.2.88s.07.61.21.87c.14.26.33.46.58.61.24.15.52.22.82.22.28,0,.54-.06.77-.18.24-.12.46-.3.68-.54l1.21,1.27c-.34.39-.75.69-1.24.9-.49.21-1,.32-1.53.32Z"/>
    <path class="cls-3" d="M65.41,23.72v-8.86l2.05-.32v5.21l2.67-2.73h2.29l-2.97,3.02,3.18,3.67h-2.59l-2.57-3v3h-2.05Z"/>
    <path class="cls-3" d="M79.96,23.86c-.67,0-1.29-.12-1.86-.35-.57-.23-1.08-.56-1.51-.97-.43-.42-.77-.9-1.01-1.46-.24-.55-.36-1.15-.36-1.79s.12-1.24.36-1.79c.24-.55.57-1.04,1-1.46.43-.42.93-.74,1.5-.97s1.19-.35,1.85-.35c.75,0,1.46.15,2.13.46.67.31,1.21.73,1.63,1.27l-1.53,1.38c-.29-.37-.62-.65-.99-.84-.38-.19-.79-.28-1.23-.28-.35,0-.68.07-.98.2s-.56.31-.78.54c-.22.23-.4.5-.52.81s-.18.65-.18,1.02.06.71.19,1.03c.13.32.31.59.54.82.23.23.5.41.81.54.31.13.64.2,1.01.2s.66-.06.94-.18c.28-.12.53-.28.73-.49.2-.21.35-.45.43-.72h-2.39v-1.89h4.75v.63c0,.67-.11,1.28-.34,1.84s-.54,1.05-.94,1.47-.88.74-1.42.97c-.55.23-1.15.34-1.8.34Z"/>
    <path class="cls-3" d="M85.51,23.72v-8.86l2.05-.32v9.17h-2.05Z"/>
    <path class="cls-3" d="M92.15,23.84c-.68,0-1.3-.15-1.85-.46-.55-.31-.98-.72-1.3-1.25-.32-.52-.48-1.11-.48-1.76s.16-1.24.48-1.77c.32-.53.76-.94,1.3-1.25.55-.31,1.16-.46,1.85-.46s1.3.15,1.85.46c.55.31.98.73,1.3,1.25.32.53.48,1.12.48,1.77s-.16,1.24-.48,1.76c-.32.52-.76.94-1.3,1.25-.55.31-1.16.46-1.85.46ZM92.15,22.07c.31,0,.59-.08.84-.23.24-.15.44-.36.58-.61.14-.26.21-.54.21-.85s-.07-.61-.21-.87c-.14-.26-.34-.46-.59-.61-.25-.15-.53-.23-.83-.23s-.58.08-.83.23c-.25.15-.45.36-.59.61-.14.26-.21.55-.21.87s.07.6.21.85c.14.26.34.46.59.61.25.15.53.23.83.23Z"/>
    <path class="cls-3" d="M96.74,23.72v-8.86l2.05-.32v2.95c.52-.37,1.11-.56,1.77-.56s1.22.15,1.73.46c.51.31.92.72,1.23,1.24.3.52.46,1.1.46,1.74s-.15,1.22-.46,1.74c-.31.52-.73.93-1.25,1.23s-1.12.46-1.77.46c-.31,0-.62-.04-.91-.12-.3-.08-.57-.2-.82-.35v.38h-2.02ZM100.21,22.07c.34,0,.64-.07.9-.22.26-.15.47-.35.63-.61s.23-.55.23-.87-.08-.61-.23-.87c-.16-.26-.37-.46-.63-.61s-.56-.22-.89-.22c-.29,0-.55.04-.78.13-.24.09-.45.22-.63.4v2.34c.18.16.39.29.63.38.24.09.51.14.78.14Z"/>
    <path class="cls-3" d="M107.14,23.83c-.47,0-.89-.09-1.26-.27s-.65-.42-.86-.73-.31-.67-.31-1.08c0-.64.24-1.14.73-1.49.48-.35,1.16-.53,2.03-.53.52,0,1.03.06,1.52.19v-.33c0-.34-.11-.59-.32-.75-.22-.16-.53-.25-.96-.25-.26,0-.55.04-.88.13s-.71.22-1.14.4l-.73-1.51c.55-.24,1.08-.43,1.59-.55.51-.12,1.02-.18,1.54-.18.93,0,1.65.22,2.16.66s.77,1.06.77,1.87v4.29h-2.02v-.4c-.27.19-.55.32-.85.4-.3.08-.63.12-.99.12ZM106.66,21.72c0,.21.09.38.28.49.19.12.44.18.77.18.24,0,.47-.03.69-.08.21-.05.41-.13.59-.24v-.86c-.19-.05-.39-.09-.59-.11-.2-.03-.41-.04-.62-.04-.35,0-.63.06-.82.17-.19.11-.29.28-.29.49Z"/>
    <path class="cls-3" d="M112.23,23.72v-8.86l2.05-.32v9.17h-2.05Z"/>
  </g>
  <g>
    <path class="cls-3" d="M47.25,25.66l-1.34,2.59v1.47h-.67v-1.47l-1.35-2.59h.74l.94,1.99.94-1.99h.74Z"/>
    <path class="cls-3" d="M48.35,29.57c-.25-.14-.44-.33-.58-.58-.14-.25-.21-.54-.21-.87s.07-.62.22-.87.34-.45.59-.58c.25-.14.53-.2.84-.2s.59.07.84.2c.25.14.45.33.59.58s.22.54.22.87-.07.62-.22.87c-.15.25-.35.45-.6.59s-.54.21-.84.21-.58-.07-.82-.21ZM49.65,29.07c.15-.08.27-.2.37-.37.09-.16.14-.36.14-.6s-.04-.43-.13-.59c-.09-.16-.21-.28-.36-.37-.15-.08-.31-.12-.48-.12s-.33.04-.48.12c-.15.08-.26.2-.35.37s-.13.36-.13.59c0,.35.09.61.27.8.18.19.4.28.67.28.17,0,.33-.04.48-.12Z"/>
    <path class="cls-3" d="M54.42,26.5v3.22h-.67v-.38c-.11.13-.24.24-.41.31-.17.08-.35.11-.54.11-.25,0-.48-.05-.68-.16-.2-.11-.36-.26-.47-.47s-.17-.46-.17-.75v-1.89h.66v1.79c0,.29.07.51.22.66.14.15.34.23.59.23s.45-.08.59-.23.22-.37.22-.66v-1.79h.67Z"/>
    <path class="cls-3" d="M56.35,26.59c.16-.09.35-.14.58-.14v.69h-.17c-.26,0-.46.07-.59.2-.13.13-.2.36-.2.69v1.69h-.67v-3.22h.67v.47c.1-.16.23-.29.39-.38Z"/>
    <path class="cls-3" d="M59.72,25.66v4.06h-.67v-4.06h.67Z"/>
    <path class="cls-3" d="M62.9,26.61c.2.1.36.26.47.47s.17.46.17.75v1.9h-.66v-1.8c0-.29-.07-.51-.22-.66s-.34-.23-.59-.23-.45.08-.59.23-.22.38-.22.66v1.8h-.67v-3.22h.67v.37c.11-.13.25-.24.42-.31.17-.07.35-.11.54-.11.25,0,.48.05.68.16Z"/>
    <path class="cls-3" d="M65.63,29.13l.91-2.62h.71l-1.23,3.22h-.79l-1.22-3.22h.71l.91,2.62Z"/>
    <path class="cls-3" d="M67.79,25.96c-.08-.08-.12-.18-.12-.3s.04-.22.12-.3c.08-.08.18-.12.3-.12s.22.04.3.12c.08.08.12.18.12.3s-.04.22-.12.3c-.08.08-.18.12-.3.12s-.22-.04-.3-.12ZM68.42,26.5v3.22h-.67v-3.22h.67Z"/>
    <path class="cls-3" d="M69.78,29.64c-.2-.09-.36-.22-.48-.37-.12-.16-.18-.33-.19-.53h.69c.01.14.08.25.2.34.12.09.27.14.45.14s.33-.04.44-.11c.1-.07.15-.16.15-.28,0-.12-.06-.21-.17-.27-.11-.06-.3-.12-.55-.19-.24-.07-.44-.13-.59-.19-.15-.06-.28-.16-.39-.29-.11-.13-.17-.3-.17-.51,0-.17.05-.33.15-.47.1-.14.25-.25.44-.34s.41-.12.65-.12c.37,0,.66.09.89.28.22.18.34.44.36.76h-.67c-.01-.14-.07-.26-.18-.34-.1-.09-.25-.13-.43-.13s-.31.03-.4.1c-.09.07-.14.15-.14.26,0,.09.03.16.09.22.06.06.14.1.23.14.09.03.22.08.4.13.23.06.43.13.58.19.15.06.28.16.39.28s.17.29.17.5c0,.18-.05.35-.15.49-.1.14-.24.26-.43.34s-.4.12-.65.12-.48-.05-.68-.14Z"/>
    <path class="cls-3" d="M72.45,25.96c-.08-.08-.12-.18-.12-.3s.04-.22.12-.3c.08-.08.18-.12.3-.12s.22.04.3.12c.08.08.12.18.12.3s-.04.22-.12.3c-.08.08-.18.12-.3.12s-.22-.04-.3-.12ZM73.08,26.5v3.22h-.67v-3.22h.67Z"/>
    <path class="cls-3" d="M75.09,26.6c.2-.1.42-.15.66-.15.28,0,.54.07.77.2s.41.33.54.58.2.54.2.86-.07.61-.2.87-.31.45-.55.6c-.23.14-.49.21-.77.21-.25,0-.47-.05-.66-.15-.19-.1-.35-.22-.46-.37v.47h-.67v-4.32h.67v1.58c.11-.16.27-.28.46-.38ZM76.44,27.52c-.09-.16-.21-.28-.36-.37-.15-.08-.31-.13-.48-.13s-.33.04-.48.13c-.15.09-.27.21-.36.37s-.14.36-.14.58.05.42.14.58.21.29.36.38c.15.09.31.13.48.13s.33-.04.48-.13c.15-.09.27-.22.36-.38.09-.17.14-.36.14-.58s-.05-.41-.14-.58Z"/>
    <path class="cls-3" d="M78.58,25.4v4.32h-.67v-4.32h.67Z"/>
    <path class="cls-3" d="M82.39,28.36h-2.46c.02.26.11.46.29.62.17.16.38.23.63.23.36,0,.61-.15.76-.45h.72c-.1.3-.27.54-.53.73-.26.19-.57.28-.95.28-.31,0-.58-.07-.83-.21-.24-.14-.43-.33-.57-.58s-.21-.54-.21-.87.07-.62.2-.87.32-.44.57-.58.52-.2.84-.2.57.07.81.2.42.32.55.56c.13.24.2.52.2.83,0,.12,0,.23-.02.33ZM81.72,27.82c0-.25-.09-.44-.26-.59-.17-.15-.38-.22-.64-.22-.23,0-.43.07-.59.22s-.26.34-.29.59h1.78Z"/>
    <path class="cls-3" d="M85.25,26.2v1.19h1.4v.54h-1.4v1.24h1.58v.54h-2.24v-4.07h2.24v.54h-1.58Z"/>
    <path class="cls-3" d="M90.54,26.5l-1.97,4.73h-.69l.65-1.57-1.27-3.17h.74l.91,2.45.94-2.45h.69Z"/>
    <path class="cls-3" d="M93.97,28.36h-2.46c.02.26.11.46.29.62.17.16.38.23.63.23.36,0,.61-.15.76-.45h.72c-.1.3-.27.54-.53.73-.26.19-.57.28-.95.28-.31,0-.58-.07-.83-.21-.24-.14-.43-.33-.57-.58s-.21-.54-.21-.87.07-.62.2-.87.32-.44.57-.58.52-.2.84-.2.57.07.81.2.42.32.55.56c.13.24.2.52.2.83,0,.12,0,.23-.02.33ZM93.3,27.82c0-.25-.09-.44-.26-.59-.17-.15-.38-.22-.64-.22-.23,0-.43.07-.59.22s-.26.34-.29.59h1.78Z"/>
  </g>
</svg>
